<svg width="20" height="21" viewBox="0 0 20 21" fill="none" xmlns="http://www.w3.org/2000/svg">
<path d="M0 3.21023V18.3325L11.7718 20.7446V0.983643L0 3.21023ZM5.93071 14.2883C2.18849 14.0524 2.57391 7.46046 6.01807 7.40809C9.70772 7.64642 9.34576 14.2357 5.93071 14.2883ZM5.98466 8.69877C4.01315 8.83254 4.10142 12.96 5.95425 12.9931C7.91726 12.8695 7.80198 8.73084 5.98466 8.69877ZM13.7776 11.3276C13.9554 11.4553 14.1695 11.3276 14.1695 11.3276C13.9561 11.4553 20 7.53206 20 7.53206V14.6364C20 15.4097 19.4934 15.7341 18.9238 15.7341H12.5154L12.5158 10.4808L13.7776 11.3276ZM12.5161 5.17336V9.03872L13.8983 9.88925C13.9348 9.89967 14.0138 9.90041 14.0502 9.88925L19.9992 5.9697C19.9992 5.50586 19.5564 5.17336 19.3065 5.17336H12.5161Z" fill="white"/>
</svg>
