<svg width="70" height="87" viewBox="0 0 70 87" fill="none" xmlns="http://www.w3.org/2000/svg">
<path d="M44.9772 0.880501C41.2976 7.24879 40.3321 14.9459 46.1249 14.3041C50.8261 13.7838 49.3183 6.52628 44.9774 0.880501H44.9772ZM21.1067 1.65241C17.7679 8.17509 17.2103 15.9046 22.9622 15.01C27.6302 14.2836 25.7409 7.10116 21.1067 1.65203V1.65241ZM64.4905 16.192C60.2019 22.0518 58.4935 29.5662 64.3317 29.6401C69.0704 29.7003 68.2698 22.3185 64.4905 16.1918V16.192ZM2.36885 16.8192C-0.897751 23.1699 -1.07353 30.5558 3.6628 30.165C9.49873 29.6829 7.15264 22.3411 2.36885 16.8192ZM44.8677 18.4352C34.0064 18.8717 35.0392 41.3469 45.3739 40.9353C55.5337 40.5324 55.5532 18.0075 44.8675 18.4354L44.8677 18.4352ZM23.9507 18.791C23.789 18.7941 23.6288 18.8072 23.4624 18.8213C12.6382 19.7447 14.8833 42.1422 25.1837 41.2672C35.1511 40.422 34.1431 18.6077 23.9507 18.791ZM7.76416 34.8932C7.4418 34.889 7.11953 34.907 6.79971 34.9472C-3.97099 36.2961 -0.666109 58.5882 9.58291 57.3086C19.3437 56.0909 17.5214 35.0043 7.76416 34.8932ZM62.1831 35.1523C51.3134 34.9541 50.7599 57.4417 61.103 57.6343C71.2698 57.8246 72.8773 35.3488 62.1831 35.1523ZM33.8628 48.124C22.7261 48.3667 31.3261 59.7385 11.6401 66.3488C-3.61826 71.472 5.62295 86.9074 18.6831 86.9609C25.8515 86.9906 28.4097 81.3998 34.2778 81.4251C40.9411 81.4529 41.4739 86.4684 51.2271 86.5089C63.6802 86.5597 70.8882 71.032 56.6411 65.7576C38.5015 59.0423 46.0942 48.2378 34.412 48.1241C34.2251 48.1226 34.0396 48.1201 33.8628 48.124Z" fill="#FF7315"/>
</svg>
