<svg width="49" height="61" viewBox="0 0 49 61" fill="none" xmlns="http://www.w3.org/2000/svg">
<path d="M31.7114 0C29.117 4.45889 28.4363 9.8482 32.5205 9.3988C35.8351 9.03452 34.772 3.95301 31.7115 0H31.7114ZM14.8814 0.540472C12.5273 5.10746 12.1342 10.5195 16.1896 9.89306C19.4808 9.38448 18.1487 4.35553 14.8814 0.540201V0.540472ZM45.4693 10.7207C42.4455 14.8235 41.241 20.0849 45.3573 20.1366C48.6983 20.1788 48.1339 15.0102 45.4693 10.7205V10.7207ZM1.67017 11.1598C-0.632962 15.6064 -0.756898 20.7778 2.58247 20.5041C6.69712 20.1666 5.043 15.0261 1.67017 11.1598ZM31.6341 12.2913C23.9763 12.5969 24.7045 28.3334 31.9911 28.0452C39.1542 27.7631 39.168 11.9918 31.634 12.2914L31.6341 12.2913ZM16.8865 12.5404C16.7725 12.5426 16.6596 12.5518 16.5423 12.5616C8.9106 13.2082 10.4935 28.8902 17.7559 28.2776C24.7834 27.6858 24.0727 12.4121 16.8865 12.5404ZM5.47415 23.8147C5.24687 23.8117 5.01965 23.8244 4.79416 23.8525C-2.79976 24.797 -0.469642 40.4053 6.75647 39.5093C13.6383 38.6567 12.3535 23.8925 5.47415 23.8147ZM43.8424 23.9961C36.1787 23.8574 35.7884 39.6025 43.0809 39.7374C50.2491 39.8706 51.3824 24.1337 43.8424 23.9961ZM23.8751 33.0785C16.0231 33.2485 22.0866 41.2107 8.20692 45.839C-2.55107 49.4261 3.96449 60.2335 13.1726 60.271C18.2267 60.2918 20.0303 56.3773 24.1677 56.395C28.8657 56.4144 29.2413 59.9261 36.1178 59.9545C44.8979 59.99 49.98 49.1181 39.935 45.425C27.1456 40.7232 32.4989 33.1582 24.2623 33.0786C24.1305 33.0775 23.9997 33.0758 23.8751 33.0785Z" fill="#F5F5F5"/>
</svg>
